<?xml version="1.0" encoding="utf-8"?>
<!-- Generator: Adobe Illustrator 24.1.2, SVG Export Plug-In . SVG Version: 6.00 Build 0)  -->
<svg version="1.1" id="Layer_1" xmlns="http://www.w3.org/2000/svg" xmlns:xlink="http://www.w3.org/1999/xlink" x="0px" y="0px"
	 viewBox="0 0 200 60" style="enable-background:new 0 0 200 60;" xml:space="preserve">
<style type="text/css">
	.st0{fill:#FDAFE0;}
	.st1{fill:#FFF07A;}
</style>
<rect x="99.69" y="55.33" class="st0" width="100.31" height="4.67"/>
<rect x="0" y="55.33" class="st1" width="99.69" height="4.67"/>
<g>
	<path d="M21.43,18.05c0,0.14-0.02,0.31-0.05,0.51c-0.03,0.2-0.08,0.41-0.14,0.61c-0.06,0.21-0.13,0.4-0.21,0.59
		c-0.08,0.19-0.17,0.33-0.26,0.44c-0.26,0.31-0.71,0.46-1.37,0.46c0-0.72-0.1-1.32-0.3-1.8c-0.1-0.22-0.27-0.41-0.52-0.57
		c-0.25-0.15-0.53-0.28-0.84-0.39c-0.31-0.11-0.62-0.18-0.93-0.23c-0.31-0.05-0.58-0.07-0.81-0.07c-0.51,0-1,0.01-1.48,0.03
		c-0.47,0.02-0.94,0.07-1.39,0.13c-0.45,0.07-0.91,0.17-1.37,0.29c-0.46,0.12-0.94,0.28-1.44,0.49c-0.38,0.16-0.78,0.35-1.2,0.57
		c-0.42,0.22-0.8,0.47-1.15,0.74s-0.65,0.58-0.91,0.91c-0.26,0.33-0.42,0.69-0.48,1.08c-0.02,0.3,0.07,0.64,0.27,1.02
		c0.2,0.38,0.48,0.76,0.82,1.12c0.35,0.36,0.74,0.69,1.2,0.99c0.45,0.3,0.92,0.52,1.41,0.65c0.08,0.03,0.28,0.1,0.59,0.21
		c0.31,0.11,0.64,0.22,1,0.34s0.69,0.23,0.99,0.33c0.3,0.1,0.5,0.16,0.58,0.18c2.4,0.62,4.19,1.35,5.35,2.19
		c1.16,0.85,1.75,1.88,1.75,3.1c0,0.39-0.09,0.78-0.26,1.17c-0.18,0.39-0.4,0.76-0.66,1.12c-0.27,0.36-0.55,0.68-0.86,0.98
		c-0.31,0.3-0.6,0.55-0.86,0.75c-0.31,0.25-0.66,0.5-1.05,0.76c-0.39,0.26-0.81,0.51-1.26,0.76c-0.45,0.24-0.91,0.47-1.39,0.69
		c-0.48,0.21-0.96,0.4-1.45,0.56c-0.48,0.16-0.98,0.31-1.51,0.44c-0.53,0.13-1.05,0.25-1.56,0.34c-0.52,0.1-1.01,0.17-1.48,0.23
		c-0.47,0.06-0.9,0.09-1.27,0.09c-0.28,0-0.64-0.04-1.08-0.12c-0.44-0.08-0.88-0.19-1.3-0.33c-0.43-0.14-0.79-0.31-1.09-0.51
		C3.15,38.7,3,38.49,3,38.27c0-0.14,0.02-0.31,0.06-0.51c0.04-0.2,0.09-0.4,0.16-0.59c0.07-0.19,0.15-0.35,0.24-0.49
		s0.19-0.2,0.31-0.2c0.21,0,0.43,0.03,0.66,0.1c0.23,0.07,0.5,0.15,0.81,0.23c0.31,0.08,0.69,0.16,1.12,0.23
		c0.43,0.07,0.95,0.1,1.57,0.1c0.64,0,1.3-0.07,1.99-0.2c0.69-0.13,1.36-0.31,2.02-0.53c0.66-0.22,1.29-0.48,1.89-0.77
		c0.6-0.29,1.14-0.58,1.62-0.89c0.22-0.15,0.47-0.32,0.74-0.52c0.27-0.2,0.52-0.41,0.76-0.65c0.23-0.23,0.43-0.48,0.59-0.75
		c0.16-0.27,0.24-0.54,0.24-0.83c0-0.4-0.3-0.79-0.89-1.16c-0.59-0.36-1.18-0.64-1.8-0.85c-0.61-0.2-1.16-0.36-1.64-0.48
		c-0.59-0.15-1.24-0.35-1.97-0.59c-0.73-0.24-1.53-0.54-2.4-0.88c-1.45-0.55-2.67-1.36-3.67-2.43c-1-1.06-1.5-2.35-1.5-3.85
		c-0.02-0.7,0.19-1.38,0.65-2.03c0.45-0.65,1.06-1.25,1.83-1.8c0.77-0.55,1.64-1.05,2.62-1.48c0.98-0.43,2-0.77,3.04-1.01
		c0.21-0.04,0.47-0.09,0.77-0.14c0.3-0.05,0.62-0.1,0.94-0.14c0.32-0.04,0.64-0.07,0.94-0.1c0.3-0.03,0.56-0.04,0.77-0.04
		c0.26,0,0.58,0.02,0.97,0.06c0.39,0.04,0.79,0.09,1.2,0.15c0.41,0.06,0.8,0.14,1.16,0.24s0.66,0.21,0.89,0.34
		c0.54,0.29,0.97,0.63,1.28,1.04C21.28,17.27,21.43,17.67,21.43,18.05z"/>
	<path d="M55.55,31.02c0,0.14-0.15,0.32-0.44,0.53c-0.29,0.22-0.69,0.43-1.2,0.64c-0.51,0.21-1.11,0.39-1.81,0.53
		c-0.7,0.15-1.45,0.22-2.26,0.22c-0.39,0-0.75-0.02-1.08-0.06c-0.32-0.04-0.61-0.08-0.87-0.12c-0.26-0.04-0.48-0.08-0.68-0.12
		c-0.2-0.04-0.36-0.06-0.5-0.06c-0.27,0-0.4,0.12-0.4,0.37c0,0.16,0.04,0.37,0.11,0.65c0.07,0.27,0.16,0.59,0.26,0.97
		c0.1,0.37,0.18,0.79,0.26,1.25c0.07,0.46,0.11,0.96,0.11,1.5c0,0.45-0.1,0.91-0.3,1.4c-0.2,0.49-0.5,0.94-0.89,1.34
		c-0.39,0.4-0.87,0.74-1.44,1.01c-0.57,0.27-1.23,0.4-1.96,0.4c-0.86,0-1.62-0.16-2.27-0.49c-0.65-0.32-1.22-0.79-1.7-1.4
		c-0.48-0.61-0.88-1.34-1.19-2.2c-0.31-0.86-0.57-1.83-0.76-2.9c-0.01-0.06-0.02-0.21-0.02-0.43c0-0.22-0.01-0.46-0.02-0.72
		c-0.01-0.26-0.03-0.5-0.06-0.72c-0.03-0.22-0.09-0.37-0.16-0.43c-0.4,0.55-0.87,1.18-1.4,1.88c-0.53,0.7-1.08,1.4-1.66,2.11
		c-0.57,0.7-1.15,1.36-1.72,1.99c-0.57,0.62-1.1,1.13-1.59,1.52c-0.06,0.06-0.2,0.13-0.42,0.19c-0.22,0.06-0.45,0.12-0.7,0.17
		c-0.25,0.05-0.49,0.09-0.71,0.12c-0.22,0.03-0.37,0.05-0.45,0.05c-0.29,0-0.56-0.13-0.81-0.39c-0.25-0.26-0.47-0.6-0.65-1.03
		c-0.19-0.43-0.33-0.9-0.43-1.44c-0.1-0.53-0.15-1.06-0.15-1.6c0-0.77,0.04-1.6,0.11-2.51c0.07-0.91,0.16-1.81,0.27-2.71
		c0.11-0.9,0.22-1.76,0.34-2.58c0.12-0.82,0.22-1.52,0.32-2.09c0.03-0.16,0.11-0.37,0.23-0.62c0.12-0.26,0.27-0.51,0.45-0.75
		c0.18-0.24,0.37-0.46,0.57-0.63c0.21-0.18,0.41-0.26,0.6-0.26c0.18,0,0.34,0.04,0.49,0.13c0.14,0.09,0.27,0.2,0.37,0.32
		c0.1,0.12,0.18,0.25,0.23,0.37c0.05,0.12,0.08,0.22,0.08,0.3c0,0.38-0.09,0.85-0.26,1.4c-0.18,0.55-0.37,1.17-0.58,1.88
		c-0.01,0.04-0.03,0.19-0.07,0.45c-0.04,0.25-0.08,0.58-0.13,0.97c-0.05,0.39-0.1,0.84-0.14,1.33c-0.05,0.5-0.09,1-0.14,1.51
		c-0.04,0.51-0.08,1.01-0.1,1.51c-0.03,0.49-0.04,0.94-0.04,1.33c0,0.48,0.03,0.9,0.08,1.27c0.05,0.37,0.15,0.65,0.29,0.85
		c0.36-0.04,0.73-0.19,1.11-0.46c0.38-0.26,0.76-0.6,1.14-1.01c0.38-0.42,0.77-0.89,1.15-1.41c0.38-0.53,0.76-1.07,1.14-1.64
		c0.38-0.56,0.75-1.13,1.11-1.71c0.36-0.57,0.72-1.12,1.07-1.63c0.1-0.14,0.2-0.32,0.32-0.53c0.12-0.22,0.26-0.43,0.43-0.62
		c0.17-0.2,0.37-0.37,0.6-0.51c0.23-0.14,0.5-0.22,0.82-0.22c0.11,0,0.22,0.04,0.34,0.12c0.12,0.08,0.23,0.19,0.33,0.34
		c0.1,0.15,0.18,0.33,0.25,0.53c0.06,0.21,0.1,0.43,0.1,0.68v1.18c0,0.28,0,0.54,0,0.81s0.01,0.47,0.03,0.61
		c0.04,0.36,0.1,0.8,0.16,1.31c0.06,0.51,0.15,1.04,0.27,1.6c0.12,0.55,0.27,1.1,0.45,1.64c0.18,0.54,0.41,1.03,0.69,1.46
		c0.28,0.43,0.61,0.78,1,1.04c0.38,0.27,0.84,0.4,1.37,0.4c0.31,0,0.61-0.07,0.91-0.21c0.3-0.14,0.57-0.32,0.81-0.54
		c0.24-0.22,0.43-0.48,0.57-0.76c0.14-0.28,0.22-0.57,0.22-0.85c0-0.2-0.02-0.44-0.05-0.72c-0.03-0.28-0.07-0.55-0.11-0.81
		c-0.04-0.27-0.09-0.51-0.13-0.74c-0.04-0.23-0.08-0.4-0.11-0.5c-0.18-0.71-0.35-1.32-0.52-1.81c-0.17-0.49-0.25-0.92-0.25-1.27
		c0-0.1,0.03-0.21,0.1-0.33c0.06-0.13,0.14-0.25,0.24-0.37c0.1-0.12,0.2-0.22,0.32-0.3c0.12-0.08,0.22-0.12,0.32-0.12
		c0.06,0,0.2,0.03,0.41,0.09c0.21,0.06,0.46,0.13,0.75,0.22c0.29,0.09,0.61,0.18,0.96,0.27c0.35,0.1,0.69,0.19,1.05,0.27
		c0.35,0.08,0.69,0.16,1.01,0.22c0.32,0.06,0.6,0.09,0.83,0.09c0.39,0,0.79-0.02,1.19-0.05c0.4-0.03,0.78-0.07,1.16-0.13
		c0.37-0.05,0.72-0.11,1.04-0.18c0.32-0.07,0.6-0.14,0.84-0.22c0.14-0.05,0.3-0.11,0.47-0.16c0.18-0.05,0.34-0.08,0.49-0.08
		c0.18,0,0.33,0.06,0.45,0.17C55.49,30.47,55.55,30.69,55.55,31.02z"/>
	<path d="M69.22,32.56c-0.83,0.65-1.72,1.27-2.66,1.85c-0.95,0.58-1.9,1.1-2.86,1.55c-0.96,0.45-1.89,0.8-2.81,1.06
		c-0.91,0.26-1.76,0.39-2.52,0.39c-0.86,0-1.63-0.12-2.3-0.37s-1.24-0.64-1.71-1.17c-0.47-0.53-0.82-1.21-1.07-2.03
		c-0.24-0.82-0.37-1.81-0.37-2.96c0-1.05,0.1-2.05,0.29-2.99c0.19-0.94,0.45-1.81,0.79-2.61c0.33-0.8,0.72-1.52,1.16-2.16
		c0.44-0.64,0.91-1.19,1.42-1.64c0.5-0.45,1.02-0.79,1.56-1.03c0.53-0.24,1.05-0.36,1.56-0.36s0.95,0.07,1.33,0.22
		c0.38,0.14,0.69,0.34,0.94,0.6c0.25,0.26,0.44,0.56,0.57,0.91c0.13,0.35,0.19,0.73,0.19,1.15c0,0.28-0.06,0.61-0.17,0.99
		c-0.11,0.38-0.32,0.82-0.61,1.32c-0.3,0.5-0.71,1.06-1.23,1.68c-0.52,0.62-1.19,1.31-2.01,2.05c-0.23,0.21-0.49,0.43-0.76,0.65
		c-0.27,0.22-0.55,0.44-0.84,0.65c-0.29,0.21-0.57,0.42-0.85,0.61c-0.28,0.19-0.53,0.36-0.77,0.5c0.02,0.53,0.1,1.02,0.24,1.47
		c0.14,0.45,0.36,0.83,0.65,1.15c0.3,0.32,0.69,0.57,1.16,0.74c0.48,0.18,1.07,0.26,1.77,0.26c0.74,0,1.54-0.13,2.38-0.39
		c0.84-0.26,1.69-0.59,2.54-0.99c0.85-0.4,1.68-0.84,2.49-1.32c0.81-0.48,1.55-0.94,2.23-1.39c0.05-0.03,0.12-0.07,0.2-0.12
		c0.08-0.05,0.14-0.07,0.17-0.07c0.1,0,0.18,0.06,0.26,0.18s0.12,0.28,0.12,0.48c0,0.06-0.02,0.15-0.06,0.27
		c-0.04,0.12-0.08,0.24-0.14,0.36c-0.05,0.12-0.11,0.23-0.17,0.33C69.32,32.46,69.27,32.52,69.22,32.56z M60.26,23.56
		c0-0.37-0.1-0.67-0.3-0.89c-0.2-0.22-0.46-0.33-0.77-0.33c-0.11,0.01-0.24,0.05-0.39,0.12c-0.15,0.07-0.32,0.16-0.49,0.27
		c-0.17,0.11-0.34,0.24-0.49,0.39c-0.16,0.15-0.29,0.3-0.4,0.46c-0.52,0.75-0.94,1.58-1.27,2.5c-0.32,0.92-0.54,2.02-0.65,3.29
		c0.84-0.64,1.56-1.23,2.16-1.78c0.6-0.55,1.09-1.06,1.48-1.54c0.38-0.48,0.66-0.92,0.85-1.33C60.16,24.32,60.26,23.93,60.26,23.56z
		"/>
	<path d="M88.16,27.31c0,0.16-0.12,0.44-0.35,0.85c-0.55,0.8-1.17,1.6-1.86,2.39c-0.69,0.8-1.41,1.56-2.19,2.27
		c-0.77,0.72-1.57,1.39-2.41,2.01c-0.84,0.62-1.68,1.16-2.53,1.61c-0.85,0.45-1.7,0.8-2.55,1.05c-0.85,0.25-1.66,0.36-2.45,0.35
		c-1.7,0-3.02-0.49-3.97-1.48c-0.94-0.99-1.41-2.48-1.41-4.48c0-1.67,0.26-3.29,0.77-4.87c0.52-1.57,1.4-3.09,2.64-4.55
		c0.23-0.26,0.5-0.5,0.79-0.73c0.29-0.23,0.6-0.44,0.93-0.62c0.32-0.18,0.66-0.32,1.01-0.43c0.35-0.11,0.69-0.17,1.04-0.19
		c0.09,0,0.2,0.01,0.35,0.03c0.15,0.02,0.31,0.06,0.48,0.11c0.17,0.05,0.34,0.12,0.49,0.2c0.16,0.08,0.29,0.18,0.38,0.3
		c0.3,0.34,0.53,0.69,0.71,1.05c0.18,0.36,0.27,0.76,0.3,1.2c0.02,0.49-0.03,0.97-0.17,1.44c-0.13,0.47-0.36,0.96-0.67,1.45
		c-0.31,0.5-0.73,1.01-1.24,1.53c-0.51,0.53-1.13,1.09-1.85,1.7c-0.46,0.38-0.97,0.81-1.52,1.27c-0.56,0.46-1.23,0.95-2.02,1.46
		c0,1.03,0.31,1.82,0.93,2.35c0.62,0.54,1.48,0.81,2.56,0.81c0.61,0,1.22-0.08,1.83-0.24c0.62-0.16,1.22-0.37,1.82-0.63
		c0.6-0.26,1.17-0.56,1.73-0.89c0.56-0.34,1.08-0.68,1.57-1.03c0.9-0.66,1.72-1.32,2.46-1.97c0.73-0.65,1.46-1.34,2.19-2.07
		l0.86-0.86c0.52-0.46,0.9-0.69,1.13-0.69C88.1,27,88.16,27.1,88.16,27.31z M75.97,24.13c-0.01-0.16-0.03-0.32-0.07-0.47
		c-0.04-0.15-0.09-0.29-0.17-0.41c-0.07-0.12-0.16-0.21-0.26-0.28c-0.1-0.07-0.21-0.1-0.33-0.1c-0.56,0.03-1.13,0.37-1.69,1.03
		c-0.56,0.65-1.1,1.52-1.6,2.59c-0.12,0.23-0.22,0.5-0.31,0.79c-0.09,0.29-0.18,0.59-0.26,0.89c-0.08,0.3-0.15,0.6-0.21,0.9
		c-0.06,0.3-0.11,0.56-0.15,0.8c0.55-0.42,1.06-0.8,1.53-1.15s0.9-0.71,1.31-1.09c0.25-0.23,0.52-0.49,0.78-0.76
		c0.27-0.27,0.51-0.56,0.73-0.85c0.22-0.3,0.39-0.61,0.52-0.93C75.93,24.78,75.98,24.46,75.97,24.13z"/>
	<path d="M100.04,23.67c0,0.31-0.06,0.55-0.18,0.72c-0.12,0.17-0.27,0.3-0.45,0.38c-0.18,0.08-0.36,0.14-0.57,0.16
		c-0.2,0.02-0.38,0.04-0.54,0.05c-0.89,0.06-1.81,0.13-2.74,0.22c-0.93,0.08-1.78,0.16-2.54,0.24c-0.77,0.08-1.4,0.16-1.89,0.23
		c-0.49,0.07-0.75,0.13-0.76,0.18c-0.07,0.31-0.17,0.69-0.29,1.15c-0.12,0.46-0.24,0.95-0.37,1.48c-0.13,0.53-0.25,1.07-0.38,1.63
		c-0.13,0.56-0.24,1.09-0.34,1.6c-0.1,0.51-0.18,0.96-0.25,1.37c-0.06,0.41-0.1,0.74-0.1,0.98c0,0.22,0.02,0.49,0.05,0.81
		c0.03,0.32,0.11,0.63,0.23,0.92c0.12,0.29,0.3,0.54,0.54,0.74c0.23,0.2,0.55,0.3,0.96,0.3c0.22,0,0.5-0.07,0.82-0.21
		s0.68-0.33,1.06-0.57c0.38-0.25,0.78-0.54,1.2-0.88s0.82-0.71,1.23-1.12c0.2-0.2,0.42-0.4,0.66-0.58c0.24-0.19,0.5-0.28,0.77-0.28
		c0.39,0,0.59,0.19,0.59,0.56c0,0.19-0.03,0.37-0.1,0.55c-0.07,0.18-0.16,0.35-0.27,0.53c-0.11,0.18-0.24,0.35-0.38,0.53
		c-0.14,0.18-0.3,0.36-0.46,0.55c-0.11,0.14-0.26,0.32-0.47,0.53c-0.21,0.22-0.46,0.46-0.75,0.71c-0.29,0.25-0.62,0.51-0.97,0.77
		c-0.36,0.26-0.73,0.5-1.13,0.7c-0.4,0.21-0.81,0.38-1.25,0.51c-0.43,0.13-0.86,0.2-1.3,0.2c-0.63,0-1.15-0.09-1.57-0.27
		c-0.42-0.18-0.76-0.42-1.03-0.72c-0.27-0.3-0.47-0.63-0.61-1.01c-0.14-0.38-0.25-0.76-0.31-1.14c-0.06-0.38-0.1-0.76-0.1-1.12
		s-0.01-0.68-0.01-0.95c0-0.33,0.03-0.72,0.1-1.17c0.07-0.45,0.15-0.93,0.25-1.44c0.1-0.51,0.2-1.03,0.33-1.56
		c0.12-0.53,0.23-1.03,0.33-1.51c0.1-0.48,0.18-0.92,0.25-1.32c0.07-0.4,0.1-0.72,0.1-0.95c0-0.14-0.07-0.22-0.2-0.23
		c-0.13-0.02-0.31-0.01-0.53,0.02c-0.22,0.03-0.48,0.06-0.76,0.1c-0.28,0.03-0.57,0.02-0.87-0.03c-0.19-0.03-0.37-0.08-0.54-0.14
		c-0.17-0.06-0.32-0.15-0.45-0.26c-0.13-0.11-0.24-0.26-0.32-0.43c-0.08-0.18-0.12-0.4-0.12-0.66c0-0.33,0.09-0.56,0.26-0.69
		c0.18-0.13,0.39-0.19,0.63-0.19h3.75c0.06-0.03,0.15-0.14,0.25-0.33c0.1-0.19,0.21-0.43,0.33-0.72c0.12-0.29,0.25-0.62,0.39-0.99
		c0.14-0.37,0.28-0.75,0.42-1.15c0.14-0.4,0.28-0.8,0.42-1.2c0.13-0.4,0.26-0.78,0.37-1.13c0.18-0.57,0.39-0.98,0.64-1.23
		c0.24-0.24,0.55-0.37,0.92-0.37c0.25,0,0.45,0.05,0.61,0.14c0.17,0.09,0.3,0.2,0.39,0.33c0.1,0.13,0.17,0.27,0.21,0.42
		c0.04,0.15,0.06,0.29,0.06,0.42c0,0.04-0.03,0.17-0.1,0.37c-0.07,0.21-0.16,0.47-0.26,0.77c-0.11,0.31-0.23,0.65-0.37,1.04
		c-0.14,0.38-0.28,0.77-0.42,1.15c-0.14,0.38-0.28,0.76-0.41,1.12c-0.13,0.36-0.24,0.67-0.33,0.94c0.99-0.06,1.83-0.13,2.51-0.19
		c0.69-0.06,1.27-0.12,1.76-0.17c0.49-0.05,0.91-0.09,1.25-0.12c0.35-0.03,0.67-0.05,0.98-0.05c0.47,0,0.84,0.02,1.12,0.06
		c0.28,0.04,0.5,0.1,0.65,0.18c0.15,0.08,0.26,0.18,0.31,0.3C100.01,23.37,100.04,23.51,100.04,23.67z"/>
	<path d="M129.99,18.05c0,0.14-0.02,0.31-0.05,0.51c-0.03,0.2-0.08,0.41-0.13,0.61c-0.06,0.21-0.13,0.4-0.21,0.59
		c-0.08,0.19-0.17,0.33-0.26,0.44c-0.26,0.31-0.71,0.46-1.37,0.46c0-0.72-0.1-1.32-0.3-1.8c-0.1-0.22-0.27-0.41-0.52-0.57
		c-0.25-0.15-0.53-0.28-0.84-0.39c-0.31-0.11-0.62-0.18-0.93-0.23c-0.31-0.05-0.58-0.07-0.81-0.07c-0.51,0-1,0.01-1.48,0.03
		c-0.47,0.02-0.94,0.07-1.39,0.13s-0.91,0.17-1.37,0.29c-0.46,0.12-0.94,0.28-1.44,0.49c-0.38,0.16-0.78,0.35-1.2,0.57
		c-0.42,0.22-0.8,0.47-1.15,0.74s-0.65,0.58-0.91,0.91c-0.26,0.33-0.42,0.69-0.48,1.08c-0.02,0.3,0.07,0.64,0.27,1.02
		c0.2,0.38,0.48,0.76,0.82,1.12c0.35,0.36,0.75,0.69,1.2,0.99s0.92,0.52,1.41,0.65c0.08,0.03,0.28,0.1,0.59,0.21
		c0.31,0.11,0.64,0.22,1,0.34c0.36,0.12,0.69,0.23,0.99,0.33c0.3,0.1,0.5,0.16,0.58,0.18c2.4,0.62,4.19,1.35,5.35,2.19
		c1.16,0.85,1.75,1.88,1.75,3.1c0,0.39-0.09,0.78-0.26,1.17c-0.18,0.39-0.4,0.76-0.66,1.12c-0.27,0.36-0.55,0.68-0.86,0.98
		c-0.31,0.3-0.6,0.55-0.86,0.75c-0.31,0.25-0.66,0.5-1.05,0.76c-0.39,0.26-0.81,0.51-1.26,0.76c-0.45,0.24-0.91,0.47-1.39,0.69
		c-0.48,0.21-0.96,0.4-1.45,0.56c-0.48,0.16-0.98,0.31-1.51,0.44c-0.53,0.13-1.05,0.25-1.56,0.34c-0.52,0.1-1.01,0.17-1.48,0.23
		c-0.47,0.06-0.9,0.09-1.27,0.09c-0.28,0-0.64-0.04-1.08-0.12c-0.44-0.08-0.88-0.19-1.3-0.33c-0.43-0.14-0.79-0.31-1.09-0.51
		c-0.3-0.2-0.45-0.41-0.45-0.63c0-0.14,0.02-0.31,0.06-0.51c0.04-0.2,0.09-0.4,0.16-0.59c0.07-0.19,0.15-0.35,0.24-0.49
		s0.19-0.2,0.31-0.2c0.21,0,0.43,0.03,0.66,0.1s0.5,0.15,0.81,0.23c0.31,0.08,0.69,0.16,1.12,0.23c0.43,0.07,0.96,0.1,1.57,0.1
		c0.64,0,1.3-0.07,1.99-0.2s1.36-0.31,2.02-0.53c0.66-0.22,1.29-0.48,1.89-0.77c0.6-0.29,1.14-0.58,1.62-0.89
		c0.22-0.15,0.47-0.32,0.74-0.52c0.27-0.2,0.52-0.41,0.76-0.65c0.23-0.23,0.43-0.48,0.59-0.75c0.16-0.27,0.24-0.54,0.24-0.83
		c0-0.4-0.3-0.79-0.89-1.16c-0.58-0.36-1.18-0.64-1.8-0.85c-0.61-0.2-1.16-0.36-1.64-0.48c-0.59-0.15-1.24-0.35-1.97-0.59
		c-0.73-0.24-1.53-0.54-2.4-0.88c-1.45-0.55-2.67-1.36-3.67-2.43c-1-1.06-1.5-2.35-1.5-3.85c-0.02-0.7,0.19-1.38,0.65-2.03
		c0.45-0.65,1.06-1.25,1.83-1.8c0.77-0.55,1.64-1.05,2.63-1.48c0.98-0.43,2-0.77,3.04-1.01c0.21-0.04,0.47-0.09,0.77-0.14
		c0.3-0.05,0.62-0.1,0.94-0.14c0.32-0.04,0.64-0.07,0.94-0.1c0.3-0.03,0.56-0.04,0.77-0.04c0.26,0,0.58,0.02,0.97,0.06
		c0.39,0.04,0.79,0.09,1.2,0.15c0.41,0.06,0.8,0.14,1.17,0.24s0.66,0.21,0.88,0.34c0.54,0.29,0.97,0.63,1.28,1.04
		C129.83,17.27,129.99,17.67,129.99,18.05z"/>
	<path d="M152.98,24.26c0,0.39-0.11,0.69-0.32,0.9c-0.21,0.21-0.46,0.39-0.73,0.55c-0.35,0.16-0.74,0.3-1.17,0.43
		c-0.43,0.13-0.87,0.24-1.32,0.34c-0.45,0.1-0.91,0.19-1.36,0.26c-0.46,0.07-0.89,0.12-1.31,0.17c-0.45,0.04-0.92,0.09-1.42,0.13
		c-0.5,0.04-0.98,0.09-1.45,0.13c-0.47,0.05-0.9,0.1-1.3,0.17c-0.4,0.06-0.72,0.14-0.97,0.24c-0.22,0.97-0.46,1.89-0.71,2.77
		c-0.25,0.88-0.46,1.75-0.63,2.63c-0.04,0.2-0.1,0.51-0.17,0.91c-0.07,0.4-0.13,0.83-0.2,1.27c-0.06,0.44-0.12,0.86-0.17,1.25
		c-0.05,0.39-0.07,0.67-0.07,0.84c0,0.44,0.07,0.76,0.21,0.98c0.14,0.22,0.29,0.39,0.46,0.53c0.16,0.13,0.32,0.26,0.45,0.37
		c0.14,0.12,0.21,0.29,0.21,0.53c0,0.15-0.07,0.29-0.22,0.43c-0.14,0.14-0.32,0.26-0.52,0.37c-0.2,0.11-0.42,0.19-0.65,0.25
		c-0.23,0.06-0.43,0.09-0.6,0.09c-0.31,0-0.59-0.09-0.83-0.26c-0.25-0.17-0.45-0.39-0.62-0.66c-0.17-0.27-0.3-0.58-0.4-0.93
		c-0.1-0.35-0.14-0.71-0.14-1.09c0-0.49,0.04-1.01,0.13-1.57c0.08-0.56,0.19-1.13,0.32-1.71c0.13-0.59,0.26-1.18,0.41-1.8
		c0.14-0.61,0.28-1.22,0.41-1.83c0.05-0.26,0.11-0.52,0.17-0.79c0.06-0.27,0.11-0.53,0.16-0.77c0.05-0.24,0.09-0.44,0.12-0.6
		c0.03-0.16,0.05-0.26,0.05-0.29c0-0.17-0.06-0.3-0.18-0.39c-0.12-0.09-0.27-0.14-0.44-0.14c-0.13,0-0.32,0.01-0.57,0.03
		c-0.25,0.02-0.52,0.05-0.81,0.08c-0.28,0.03-0.55,0.06-0.81,0.08s-0.44,0.03-0.56,0.03c-0.38,0-0.71-0.02-0.97-0.07
		c-0.27-0.05-0.48-0.13-0.65-0.26c-0.16-0.13-0.29-0.31-0.37-0.53c-0.08-0.23-0.12-0.52-0.12-0.89c0-0.15,0.07-0.27,0.21-0.35
		c0.14-0.08,0.31-0.15,0.5-0.18c0.2-0.04,0.41-0.06,0.63-0.06c0.22-0.01,0.42-0.01,0.59-0.01c0.14,0,0.36-0.01,0.68-0.04
		c0.31-0.03,0.64-0.06,0.99-0.09c0.34-0.03,0.67-0.06,0.99-0.09c0.31-0.03,0.54-0.04,0.68-0.04c0.06,0,0.14-0.01,0.22-0.02
		c0.09-0.01,0.17-0.04,0.26-0.09c0.09-0.05,0.17-0.13,0.25-0.24c0.07-0.11,0.14-0.27,0.19-0.47c0.07-0.33,0.16-0.72,0.27-1.16
		c0.11-0.44,0.22-0.89,0.33-1.36c0.11-0.46,0.22-0.91,0.33-1.34c0.11-0.43,0.2-0.8,0.27-1.11c0.1-0.3,0.18-0.62,0.25-0.96
		c0.07-0.34,0.13-0.68,0.19-1.02c0.06-0.34,0.12-0.67,0.2-0.99c0.07-0.32,0.17-0.61,0.29-0.88c0.23-0.55,0.61-0.83,1.13-0.83
		c0.79,0,1.18,0.44,1.18,1.31c0,0.54-0.12,1.17-0.35,1.87c-0.51,1.62-0.89,2.95-1.13,4c-0.25,1.05-0.37,1.75-0.37,2.11
		c0,0.39,0.2,0.59,0.59,0.59c0.48,0,0.93-0.01,1.35-0.02c0.42-0.02,0.85-0.04,1.28-0.08c0.43-0.04,0.89-0.08,1.36-0.13
		c0.48-0.05,1.02-0.11,1.61-0.18c0.43-0.05,0.83-0.12,1.22-0.19c0.39-0.07,0.75-0.15,1.08-0.22c0.33-0.07,0.62-0.14,0.88-0.2
		c0.25-0.06,0.47-0.11,0.64-0.13c0.12-0.01,0.23-0.03,0.34-0.05c0.11-0.02,0.21-0.02,0.29-0.01c0.08,0.02,0.14,0.06,0.19,0.13
		C152.96,23.98,152.98,24.1,152.98,24.26z"/>
	<path d="M170.41,24.24c0,0.18-0.06,0.38-0.19,0.59c-0.13,0.21-0.29,0.43-0.49,0.65c-0.2,0.22-0.43,0.43-0.69,0.64
		c-0.26,0.21-0.51,0.4-0.77,0.57c-0.25,0.18-0.5,0.33-0.73,0.46c-0.23,0.13-0.42,0.23-0.57,0.3c-0.28,0.12-0.64,0.22-1.09,0.31
		c-0.45,0.09-0.92,0.17-1.41,0.23c-0.49,0.06-0.97,0.11-1.44,0.15s-0.86,0.06-1.18,0.06c-0.13,0-0.3-0.02-0.53-0.06
		c-0.22-0.04-0.45-0.1-0.69-0.16c-0.23-0.06-0.46-0.14-0.66-0.22c-0.21-0.08-0.36-0.16-0.46-0.25c0.1,0.4,0.18,0.81,0.26,1.22
		c0.07,0.41,0.11,0.83,0.11,1.27c0,0.19-0.02,0.43-0.07,0.7s-0.11,0.56-0.19,0.84c-0.08,0.28-0.17,0.55-0.26,0.81
		c-0.09,0.26-0.2,0.48-0.3,0.65c-0.28,0.47-0.56,0.89-0.85,1.28c-0.29,0.38-0.62,0.74-0.99,1.06c-0.37,0.32-0.78,0.63-1.24,0.92
		c-0.46,0.29-0.98,0.56-1.58,0.83c-0.64,0.28-1.28,0.47-1.92,0.58c-0.64,0.11-1.31,0.17-2,0.17c-0.44,0-0.82-0.13-1.16-0.38
		c-0.34-0.26-0.63-0.6-0.86-1.03c-0.23-0.43-0.41-0.93-0.53-1.49c-0.12-0.56-0.18-1.15-0.18-1.77c0-0.16,0.01-0.36,0.04-0.59
		c0.03-0.23,0.06-0.47,0.11-0.72c0.05-0.24,0.1-0.48,0.15-0.7c0.05-0.22,0.11-0.42,0.16-0.57c0.15-0.45,0.36-0.96,0.64-1.53
		c0.28-0.57,0.6-1.16,0.97-1.76c0.37-0.6,0.79-1.19,1.25-1.77c0.46-0.58,0.94-1.1,1.44-1.56c0.5-0.46,1.02-0.82,1.56-1.1
		c0.54-0.28,1.08-0.42,1.63-0.42c0.18,0,0.33,0.03,0.44,0.08c0.11,0.05,0.21,0.12,0.29,0.21c0.08,0.09,0.15,0.18,0.22,0.27
		c0.06,0.1,0.14,0.19,0.22,0.29c0.03,0.05,0.08,0.08,0.14,0.08c0.08,0,0.19-0.02,0.32-0.06c0.13-0.04,0.27-0.06,0.43-0.06
		c0.2,0,0.45,0.13,0.75,0.39c0.3,0.26,0.61,0.55,0.93,0.86c0.32,0.31,0.65,0.6,0.97,0.86s0.61,0.39,0.87,0.39
		c0.29,0,0.6,0,0.93-0.02c0.33-0.01,0.66-0.03,1.01-0.06c0.34-0.03,0.68-0.06,1.01-0.1c0.33-0.04,0.63-0.09,0.91-0.14
		c0.07-0.02,0.25-0.07,0.53-0.14c0.28-0.07,0.6-0.16,0.97-0.26c0.37-0.1,0.76-0.21,1.16-0.33c0.41-0.12,0.79-0.23,1.14-0.33
		c0.35-0.1,0.64-0.18,0.87-0.25c0.23-0.06,0.35-0.09,0.37-0.09c0.06,0,0.12,0.02,0.18,0.05C170.38,24.1,170.41,24.16,170.41,24.24z
		 M157.96,26.8c-0.06-0.21-0.19-0.42-0.37-0.62c-0.19-0.2-0.4-0.38-0.64-0.54c-0.24-0.16-0.49-0.29-0.76-0.39
		c-0.27-0.1-0.52-0.15-0.75-0.15c-0.19,0-0.38,0.03-0.56,0.1c-0.18,0.06-0.36,0.15-0.53,0.25c-0.18,0.1-0.34,0.21-0.5,0.34
		c-0.16,0.12-0.31,0.24-0.45,0.34c-0.42,0.35-0.81,0.84-1.19,1.48c-0.38,0.63-0.71,1.31-0.99,2.04c-0.28,0.73-0.51,1.45-0.68,2.18
		c-0.17,0.72-0.26,1.35-0.26,1.88c0,0.23,0.04,0.46,0.12,0.68c0.08,0.22,0.19,0.41,0.34,0.57c0.15,0.17,0.32,0.3,0.53,0.4
		c0.2,0.1,0.43,0.15,0.67,0.15c0.64,0,1.23-0.11,1.77-0.34c0.54-0.23,1.03-0.54,1.48-0.94c0.44-0.4,0.83-0.87,1.17-1.43
		c0.34-0.55,0.63-1.15,0.86-1.8c0.23-0.64,0.41-1.32,0.53-2.03C157.88,28.24,157.95,27.52,157.96,26.8z"/>
	<path d="M182.15,25.95c0,0.16-0.07,0.3-0.22,0.41c-0.14,0.11-0.33,0.22-0.57,0.31c-0.23,0.1-0.5,0.18-0.79,0.26
		c-0.29,0.08-0.58,0.17-0.87,0.26c-0.69,0.21-1.4,0.52-2.13,0.92c-0.73,0.4-1.49,1-2.27,1.8c-0.62,0.63-1.15,1.29-1.59,1.97
		c-0.44,0.69-0.82,1.41-1.14,2.18c-0.32,0.77-0.59,1.58-0.81,2.43c-0.22,0.86-0.41,1.77-0.57,2.74c-0.12,0.13-0.22,0.24-0.3,0.34
		c-0.09,0.09-0.18,0.18-0.27,0.24s-0.21,0.11-0.33,0.15c-0.12,0.04-0.28,0.06-0.47,0.06c-0.28,0-0.49-0.12-0.65-0.36
		c-0.15-0.24-0.27-0.52-0.34-0.85c-0.07-0.32-0.12-0.65-0.14-0.98c-0.02-0.33-0.02-0.59-0.02-0.78c0-0.2,0-0.46,0.02-0.77
		c0.01-0.31,0.02-0.66,0.04-1.03c0.02-0.37,0.03-0.76,0.06-1.16c0.02-0.4,0.04-0.78,0.06-1.16c0.02-0.37,0.03-0.72,0.04-1.03
		c0.01-0.31,0.02-0.57,0.02-0.77c0-0.49-0.01-0.89-0.02-1.21c-0.02-0.32-0.04-0.59-0.06-0.81c-0.02-0.22-0.05-0.42-0.08-0.6
		c-0.03-0.18-0.06-0.37-0.08-0.57s-0.04-0.45-0.06-0.73c-0.02-0.28-0.02-0.65-0.02-1.09c0-0.22,0.05-0.44,0.14-0.65
		c0.09-0.21,0.22-0.39,0.37-0.54c0.15-0.15,0.33-0.28,0.53-0.37c0.2-0.09,0.39-0.14,0.58-0.14c0.22,0,0.43,0.05,0.62,0.14
		c0.19,0.09,0.36,0.22,0.49,0.37c0.14,0.15,0.24,0.32,0.32,0.52c0.07,0.2,0.11,0.4,0.11,0.6c0,0.4-0.03,0.89-0.08,1.44
		c-0.05,0.56-0.11,1.13-0.17,1.71c-0.06,0.58-0.11,1.14-0.15,1.67c-0.04,0.54-0.06,0.99-0.05,1.35c0.46-0.87,0.99-1.75,1.59-2.65
		c0.6-0.89,1.27-1.7,2.01-2.43c0.74-0.73,1.54-1.33,2.4-1.79c0.86-0.46,1.78-0.7,2.76-0.7c0.19,0,0.41,0.02,0.65,0.06
		c0.25,0.04,0.47,0.12,0.69,0.22c0.21,0.11,0.39,0.24,0.54,0.41C182.08,25.5,182.15,25.71,182.15,25.95z"/>
	<path d="M198.67,30.39c0,0.37-0.14,0.78-0.41,1.21c-0.28,0.44-0.67,0.92-1.18,1.47c-0.58,0.62-1.23,1.19-1.93,1.72
		c-0.7,0.53-1.43,0.98-2.17,1.37c-0.74,0.39-1.5,0.69-2.27,0.92c-0.77,0.22-1.51,0.34-2.22,0.34c-1.67,0-2.96-0.54-3.88-1.61
		c-0.92-1.07-1.37-2.65-1.37-4.72c0-0.66,0.06-1.33,0.18-2.02c0.12-0.69,0.29-1.36,0.52-2.03c0.23-0.67,0.52-1.32,0.86-1.95
		c0.35-0.63,0.75-1.21,1.2-1.76c0.29-0.33,0.61-0.66,0.96-1.01c0.35-0.34,0.74-0.65,1.16-0.92c0.43-0.27,0.89-0.49,1.4-0.66
		c0.51-0.17,1.06-0.26,1.65-0.26c0.43,0,0.81,0.08,1.15,0.25c0.34,0.17,0.63,0.37,0.86,0.63c0.23,0.26,0.41,0.54,0.53,0.86
		c0.12,0.32,0.18,0.63,0.18,0.94c0,0.65-0.18,1.31-0.53,1.97c-0.35,0.66-0.85,1.33-1.48,2.01c-0.64,0.67-1.4,1.35-2.3,2.03
		c-0.89,0.68-1.89,1.35-2.98,2.02c-0.15,0.08-0.3,0.18-0.45,0.28c-0.15,0.1-0.22,0.23-0.22,0.37c0,0.32,0.04,0.65,0.13,1.01
		c0.08,0.35,0.24,0.67,0.46,0.97c0.22,0.29,0.52,0.54,0.9,0.73c0.38,0.19,0.86,0.29,1.44,0.29c0.74,0,1.5-0.12,2.27-0.36
		c0.77-0.24,1.53-0.57,2.27-1c0.74-0.43,1.46-0.93,2.15-1.52c0.7-0.58,1.35-1.22,1.95-1.9c0.34-0.37,0.61-0.56,0.81-0.56
		c0.12,0,0.2,0.07,0.26,0.21C198.64,29.84,198.67,30.07,198.67,30.39z M191.26,23.57c0-0.12-0.03-0.22-0.1-0.32
		c-0.06-0.1-0.14-0.18-0.23-0.24c-0.09-0.06-0.19-0.11-0.29-0.15c-0.1-0.04-0.19-0.06-0.26-0.06c-0.47,0-0.95,0.17-1.44,0.5
		c-0.49,0.34-0.95,0.8-1.37,1.4c-0.43,0.6-0.8,1.3-1.12,2.12c-0.32,0.82-0.54,1.71-0.65,2.67c0.15-0.1,0.35-0.23,0.59-0.42
		c0.24-0.18,0.51-0.38,0.79-0.6c0.28-0.22,0.56-0.44,0.85-0.66c0.28-0.22,0.53-0.43,0.76-0.62c0.49-0.42,0.89-0.78,1.21-1.11
		c0.32-0.32,0.57-0.62,0.76-0.89c0.19-0.27,0.32-0.54,0.39-0.8C191.23,24.13,191.26,23.86,191.26,23.57z"/>
</g>
<g>
</g>
<g>
</g>
<g>
</g>
<g>
</g>
<g>
</g>
<g>
</g>
<g>
</g>
<g>
</g>
<g>
</g>
<g>
</g>
<g>
</g>
<g>
</g>
<g>
</g>
<g>
</g>
<g>
</g>
</svg>
