<?xml version="1.0" encoding="utf-8"?>
<!-- Generator: Adobe Illustrator 24.1.2, SVG Export Plug-In . SVG Version: 6.00 Build 0)  -->
<svg version="1.1" id="Layer_1" xmlns="http://www.w3.org/2000/svg" xmlns:xlink="http://www.w3.org/1999/xlink" x="0px" y="0px"
	 viewBox="0 0 200 60" style="enable-background:new 0 0 200 60;" xml:space="preserve">
<style type="text/css">
	.st0{fill:#F15025;}
	.st1{fill:#25C6F1;}
</style>
<rect x="99.7" y="55.3" class="st0" width="100.3" height="4.7"/>
<rect y="55.3" class="st1" width="99.7" height="4.7"/>
<g>
	<path d="M21.4,18c0,0.1,0,0.3,0,0.5c0,0.2-0.1,0.4-0.1,0.6c-0.1,0.2-0.1,0.4-0.2,0.6s-0.2,0.3-0.3,0.4c-0.3,0.3-0.7,0.5-1.4,0.5
		c0-0.7-0.1-1.3-0.3-1.8c-0.1-0.2-0.3-0.4-0.5-0.6c-0.3-0.1-0.5-0.3-0.8-0.4c-0.3-0.1-0.6-0.2-0.9-0.2s-0.6-0.1-0.8-0.1
		c-0.5,0-1,0-1.5,0c-0.5,0-0.9,0.1-1.4,0.1c-0.4,0.1-0.9,0.2-1.4,0.3s-0.9,0.3-1.4,0.5c-0.4,0.2-0.8,0.4-1.2,0.6S8.3,19.6,8,19.9
		s-0.7,0.6-0.9,0.9s-0.4,0.7-0.5,1.1c0,0.3,0.1,0.6,0.3,1c0.2,0.4,0.5,0.8,0.8,1.1c0.4,0.4,0.7,0.7,1.2,1c0.4,0.3,0.9,0.5,1.4,0.6
		c0.1,0,0.3,0.1,0.6,0.2c0.3,0.1,0.6,0.2,1,0.3s0.7,0.2,1,0.3s0.5,0.2,0.6,0.2c2.4,0.6,4.2,1.4,5.3,2.2c1.2,0.9,1.8,1.9,1.8,3.1
		c0,0.4-0.1,0.8-0.3,1.2c-0.2,0.4-0.4,0.8-0.7,1.1c-0.3,0.4-0.5,0.7-0.9,1c-0.3,0.3-0.6,0.5-0.9,0.8c-0.3,0.3-0.7,0.5-1,0.8
		s-0.8,0.5-1.3,0.8c-0.4,0.2-0.9,0.5-1.4,0.7c-0.5,0.2-1,0.4-1.4,0.6c-0.5,0.2-1,0.3-1.5,0.4c-0.5,0.1-1.1,0.3-1.6,0.3
		c-0.5,0.1-1,0.2-1.5,0.2c-0.5,0.1-0.9,0.1-1.3,0.1c-0.3,0-0.6,0-1.1-0.1c-0.4-0.1-0.9-0.2-1.3-0.3c-0.4-0.1-0.8-0.3-1.1-0.5
		C3.2,38.7,3,38.5,3,38.3c0-0.1,0-0.3,0.1-0.5c0-0.2,0.1-0.4,0.2-0.6c0.1-0.2,0.2-0.3,0.2-0.5s0.2-0.2,0.3-0.2c0.2,0,0.4,0,0.7,0.1
		s0.5,0.2,0.8,0.2C5.5,36.9,5.9,37,6.4,37s0.9,0.1,1.6,0.1c0.6,0,1.3-0.1,2-0.2c0.7-0.1,1.4-0.3,2-0.5c0.7-0.2,1.3-0.5,1.9-0.8
		s1.1-0.6,1.6-0.9c0.2-0.2,0.5-0.3,0.7-0.5c0.3-0.2,0.5-0.4,0.8-0.7c0.2-0.2,0.4-0.5,0.6-0.8s0.2-0.5,0.2-0.8c0-0.4-0.3-0.8-0.9-1.2
		c-0.6-0.4-1.2-0.6-1.8-0.9c-0.6-0.2-1.2-0.4-1.6-0.5c-0.6-0.1-1.2-0.4-2-0.6S10,28.4,9.1,28c-1.4-0.5-2.7-1.4-3.7-2.4
		c-1-1.1-1.5-2.4-1.5-3.9c0-0.7,0.2-1.4,0.7-2c0.4-0.6,1.1-1.3,1.8-1.8s1.6-1,2.6-1.5s2-0.8,3-1c0.2,0,0.5-0.1,0.8-0.1
		c0.3-0.1,0.6-0.1,0.9-0.1s0.6-0.1,0.9-0.1c0.3,0,0.6,0,0.8,0c0.3,0,0.6,0,1,0.1s0.8,0.1,1.2,0.1c0.4,0.1,0.8,0.1,1.2,0.2
		s0.7,0.2,0.9,0.3c0.5,0.3,1,0.6,1.3,1C21.3,17.3,21.4,17.7,21.4,18z"/>
	<path d="M55.5,31c0,0.1-0.2,0.3-0.4,0.5c-0.3,0.2-0.7,0.4-1.2,0.6c-0.5,0.2-1.1,0.4-1.8,0.5c-0.7,0.2-1.5,0.2-2.3,0.2
		c-0.4,0-0.8,0-1.1-0.1c-0.3,0-0.6-0.1-0.9-0.1c-0.3,0-0.5-0.1-0.7-0.1c-0.2,0-0.4-0.1-0.5-0.1c-0.3,0-0.4,0.1-0.4,0.4
		c0,0.2,0,0.4,0.1,0.7c0.1,0.3,0.2,0.6,0.3,1c0.1,0.4,0.2,0.8,0.3,1.3c0.1,0.5,0.1,1,0.1,1.5c0,0.5-0.1,0.9-0.3,1.4
		s-0.5,0.9-0.9,1.3s-0.9,0.7-1.4,1c-0.6,0.3-1.2,0.4-2,0.4c-0.9,0-1.6-0.2-2.3-0.5c-0.7-0.3-1.2-0.8-1.7-1.4s-0.9-1.3-1.2-2.2
		c-0.3-0.9-0.6-1.8-0.8-2.9c0-0.1,0-0.2,0-0.4s0-0.5,0-0.7c0-0.3,0-0.5-0.1-0.7c0-0.2-0.1-0.4-0.2-0.4c-0.4,0.5-0.9,1.2-1.4,1.9
		c-0.5,0.7-1.1,1.4-1.7,2.1c-0.6,0.7-1.2,1.4-1.7,2c-0.6,0.6-1.1,1.1-1.6,1.5c-0.1,0.1-0.2,0.1-0.4,0.2C29.3,39.9,29,40,28.8,40
		s-0.5,0.1-0.7,0.1s-0.4,0-0.5,0c-0.3,0-0.6-0.1-0.8-0.4s-0.5-0.6-0.6-1c-0.2-0.4-0.3-0.9-0.4-1.4c-0.1-0.5-0.1-1.1-0.1-1.6
		c0-0.8,0-1.6,0.1-2.5s0.2-1.8,0.3-2.7s0.2-1.8,0.3-2.6s0.2-1.5,0.3-2.1c0-0.2,0.1-0.4,0.2-0.6c0.1-0.3,0.3-0.5,0.5-0.8
		s0.4-0.5,0.6-0.6c0.2-0.2,0.4-0.3,0.6-0.3c0.2,0,0.3,0,0.5,0.1c0.1,0.1,0.3,0.2,0.4,0.3c0.1,0.1,0.2,0.3,0.2,0.4s0.1,0.2,0.1,0.3
		c0,0.4-0.1,0.9-0.3,1.4c-0.2,0.5-0.4,1.2-0.6,1.9c0,0,0,0.2-0.1,0.5c0,0.3-0.1,0.6-0.1,1s-0.1,0.8-0.1,1.3c0,0.5-0.1,1-0.1,1.5
		c0,0.5-0.1,1-0.1,1.5c0,0.5,0,0.9,0,1.3c0,0.5,0,0.9,0.1,1.3s0.1,0.7,0.3,0.8c0.4,0,0.7-0.2,1.1-0.5c0.4-0.3,0.8-0.6,1.1-1
		c0.4-0.4,0.8-0.9,1.1-1.4c0.4-0.5,0.8-1.1,1.1-1.6c0.4-0.6,0.8-1.1,1.1-1.7c0.4-0.6,0.7-1.1,1.1-1.6c0.1-0.1,0.2-0.3,0.3-0.5
		c0.1-0.2,0.3-0.4,0.4-0.6c0.2-0.2,0.4-0.4,0.6-0.5s0.5-0.2,0.8-0.2c0.1,0,0.2,0,0.3,0.1s0.2,0.2,0.3,0.3c0.1,0.1,0.2,0.3,0.3,0.5
		c0.1,0.2,0.1,0.4,0.1,0.7v1.2c0,0.3,0,0.5,0,0.8s0,0.5,0,0.6c0,0.4,0.1,0.8,0.2,1.3c0.1,0.5,0.2,1,0.3,1.6c0.1,0.5,0.3,1.1,0.5,1.6
		s0.4,1,0.7,1.5s0.6,0.8,1,1c0.4,0.3,0.8,0.4,1.4,0.4c0.3,0,0.6-0.1,0.9-0.2s0.6-0.3,0.8-0.5s0.4-0.5,0.6-0.8s0.2-0.6,0.2-0.8
		c0-0.2,0-0.4,0-0.7c0-0.3-0.1-0.5-0.1-0.8c0-0.3-0.1-0.5-0.1-0.7c0-0.2-0.1-0.4-0.1-0.5c-0.2-0.7-0.3-1.3-0.5-1.8
		c-0.2-0.5-0.3-0.9-0.3-1.3c0-0.1,0-0.2,0.1-0.3c0.1-0.1,0.1-0.3,0.2-0.4c0.1-0.1,0.2-0.2,0.3-0.3s0.2-0.1,0.3-0.1
		c0.1,0,0.2,0,0.4,0.1s0.5,0.1,0.8,0.2s0.6,0.2,1,0.3c0.3,0.1,0.7,0.2,1,0.3c0.3,0.1,0.7,0.2,1,0.2s0.6,0.1,0.8,0.1
		c0.4,0,0.8,0,1.2,0c0.4,0,0.8-0.1,1.2-0.1c0.4,0,0.7-0.1,1-0.2s0.6-0.1,0.8-0.2c0.1,0,0.3-0.1,0.5-0.2c0.2,0,0.3-0.1,0.5-0.1
		c0.2,0,0.3,0.1,0.5,0.2C55.5,30.5,55.5,30.7,55.5,31z"/>
	<path d="M69.2,32.6c-0.8,0.7-1.7,1.3-2.7,1.8c-0.9,0.6-1.9,1.1-2.9,1.5s-1.9,0.8-2.8,1.1c-0.9,0.3-1.8,0.4-2.5,0.4
		c-0.9,0-1.6-0.1-2.3-0.4s-1.2-0.6-1.7-1.2c-0.5-0.5-0.8-1.2-1.1-2c-0.2-0.8-0.4-1.8-0.4-3c0-1,0.1-2,0.3-3c0.2-0.9,0.5-1.8,0.8-2.6
		c0.3-0.8,0.7-1.5,1.2-2.2s0.9-1.2,1.4-1.6c0.5-0.5,1-0.8,1.6-1c0.5-0.2,1-0.4,1.6-0.4s1,0.1,1.3,0.2c0.4,0.1,0.7,0.3,0.9,0.6
		s0.4,0.6,0.6,0.9s0.2,0.7,0.2,1.1c0,0.3-0.1,0.6-0.2,1c-0.1,0.4-0.3,0.8-0.6,1.3c-0.3,0.5-0.7,1.1-1.2,1.7s-1.2,1.3-2,2
		c-0.2,0.2-0.5,0.4-0.8,0.6c-0.3,0.2-0.5,0.4-0.8,0.6s-0.6,0.4-0.8,0.6s-0.5,0.4-0.8,0.5c0,0.5,0.1,1,0.2,1.5
		c0.1,0.5,0.4,0.8,0.7,1.2c0.3,0.3,0.7,0.6,1.2,0.7C58,35,58.6,35,59.3,35c0.7,0,1.5-0.1,2.4-0.4s1.7-0.6,2.5-1
		c0.8-0.4,1.7-0.8,2.5-1.3s1.6-0.9,2.2-1.4c0.1,0,0.1-0.1,0.2-0.1c0.1,0,0.1-0.1,0.2-0.1c0.1,0,0.2,0.1,0.3,0.2s0.1,0.3,0.1,0.5
		c0,0.1,0,0.1-0.1,0.3s-0.1,0.2-0.1,0.4c-0.1,0.1-0.1,0.2-0.2,0.3C69.3,32.5,69.3,32.5,69.2,32.6z M60.3,23.6c0-0.4-0.1-0.7-0.3-0.9
		s-0.5-0.3-0.8-0.3c-0.1,0-0.2,0-0.4,0.1c-0.2,0.1-0.3,0.2-0.5,0.3c-0.2,0.1-0.3,0.2-0.5,0.4c-0.2,0.1-0.3,0.3-0.4,0.5
		c-0.5,0.8-0.9,1.6-1.3,2.5c-0.3,0.9-0.5,2-0.7,3.3c0.8-0.6,1.6-1.2,2.2-1.8c0.6-0.5,1.1-1.1,1.5-1.5c0.4-0.5,0.7-0.9,0.8-1.3
		C60.2,24.3,60.3,23.9,60.3,23.6z"/>
	<path d="M88.2,27.3c0,0.2-0.1,0.4-0.3,0.9c-0.6,0.8-1.2,1.6-1.9,2.4c-0.7,0.8-1.4,1.6-2.2,2.3c-0.8,0.7-1.6,1.4-2.4,2
		c-0.8,0.6-1.7,1.2-2.5,1.6s-1.7,0.8-2.6,1c-0.8,0.3-1.7,0.4-2.4,0.3c-1.7,0-3-0.5-4-1.5c-0.9-1-1.4-2.5-1.4-4.5
		c0-1.7,0.3-3.3,0.8-4.9c0.5-1.6,1.4-3.1,2.6-4.5c0.2-0.3,0.5-0.5,0.8-0.7s0.6-0.4,0.9-0.6c0.3-0.2,0.7-0.3,1-0.4s0.7-0.2,1-0.2
		c0.1,0,0.2,0,0.3,0s0.3,0.1,0.5,0.1c0.2,0,0.3,0.1,0.5,0.2c0.2,0.1,0.3,0.2,0.4,0.3c0.3,0.3,0.5,0.7,0.7,1c0.2,0.4,0.3,0.8,0.3,1.2
		c0,0.5,0,1-0.2,1.4c-0.1,0.5-0.4,1-0.7,1.5c-0.3,0.5-0.7,1-1.2,1.5c-0.5,0.5-1.1,1.1-1.8,1.7c-0.5,0.4-1,0.8-1.5,1.3
		c-0.6,0.5-1.2,1-2,1.5c0,1,0.3,1.8,0.9,2.3c0.6,0.5,1.5,0.8,2.6,0.8c0.6,0,1.2-0.1,1.8-0.2c0.6-0.2,1.2-0.4,1.8-0.6
		c0.6-0.3,1.2-0.6,1.7-0.9c0.6-0.3,1.1-0.7,1.6-1c0.9-0.7,1.7-1.3,2.5-2c0.7-0.6,1.5-1.3,2.2-2.1l0.9-0.9c0.5-0.5,0.9-0.7,1.1-0.7
		C88.1,27,88.2,27.1,88.2,27.3z M76,24.1c0-0.2,0-0.3-0.1-0.5s-0.1-0.3-0.2-0.4c-0.1-0.1-0.2-0.2-0.3-0.3c-0.1-0.1-0.2-0.1-0.3-0.1
		c-0.6,0-1.1,0.4-1.7,1c-0.6,0.6-1.1,1.5-1.6,2.6c-0.1,0.2-0.2,0.5-0.3,0.8s-0.2,0.6-0.3,0.9s-0.2,0.6-0.2,0.9s-0.1,0.6-0.2,0.8
		c0.6-0.4,1.1-0.8,1.5-1.1s0.9-0.7,1.3-1.1c0.3-0.2,0.5-0.5,0.8-0.8c0.3-0.3,0.5-0.6,0.7-0.9c0.2-0.3,0.4-0.6,0.5-0.9
		C75.9,24.8,76,24.5,76,24.1z"/>
	<path d="M100,23.7c0,0.3-0.1,0.5-0.2,0.7s-0.3,0.3-0.4,0.4s-0.4,0.1-0.6,0.2c-0.2,0-0.4,0-0.5,0c-0.9,0.1-1.8,0.1-2.7,0.2
		c-0.9,0.1-1.8,0.2-2.5,0.2c-0.8,0.1-1.4,0.2-1.9,0.2s-0.8,0.1-0.8,0.2c-0.1,0.3-0.2,0.7-0.3,1.1s-0.2,1-0.4,1.5
		c-0.1,0.5-0.3,1.1-0.4,1.6s-0.2,1.1-0.3,1.6c-0.1,0.5-0.2,1-0.3,1.4c-0.1,0.4-0.1,0.7-0.1,1c0,0.2,0,0.5,0.1,0.8
		c0,0.3,0.1,0.6,0.2,0.9c0.1,0.3,0.3,0.5,0.5,0.7c0.2,0.2,0.6,0.3,1,0.3c0.2,0,0.5-0.1,0.8-0.2s0.7-0.3,1.1-0.6
		c0.4-0.3,0.8-0.5,1.2-0.9s0.8-0.7,1.2-1.1c0.2-0.2,0.4-0.4,0.7-0.6c0.2-0.2,0.5-0.3,0.8-0.3c0.4,0,0.6,0.2,0.6,0.6
		c0,0.2,0,0.4-0.1,0.5s-0.2,0.3-0.3,0.5c-0.1,0.2-0.2,0.3-0.4,0.5s-0.3,0.4-0.5,0.5c-0.1,0.1-0.3,0.3-0.5,0.5
		c-0.2,0.2-0.5,0.5-0.8,0.7s-0.6,0.5-1,0.8c-0.4,0.3-0.7,0.5-1.1,0.7c-0.4,0.2-0.8,0.4-1.3,0.5c-0.4,0.1-0.9,0.2-1.3,0.2
		c-0.6,0-1.2-0.1-1.6-0.3s-0.8-0.4-1-0.7c-0.3-0.3-0.5-0.6-0.6-1c-0.1-0.4-0.3-0.8-0.3-1.1s-0.1-0.8-0.1-1.1s0-0.7,0-1
		c0-0.3,0-0.7,0.1-1.2c0.1-0.5,0.2-0.9,0.3-1.4s0.2-1,0.3-1.6c0.1-0.5,0.2-1,0.3-1.5s0.2-0.9,0.3-1.3s0.1-0.7,0.1-1
		c0-0.1-0.1-0.2-0.2-0.2c-0.1,0-0.3,0-0.5,0s-0.5,0.1-0.8,0.1c-0.3,0-0.6,0-0.9,0c-0.2,0-0.4-0.1-0.5-0.1s-0.3-0.1-0.4-0.3
		s-0.2-0.3-0.3-0.4c-0.1-0.2-0.1-0.4-0.1-0.7c0-0.3,0.1-0.6,0.3-0.7c0.2-0.1,0.4-0.2,0.6-0.2h3.8c0.1,0,0.2-0.1,0.3-0.3
		s0.2-0.4,0.3-0.7c0.1-0.3,0.3-0.6,0.4-1c0.1-0.4,0.3-0.8,0.4-1.1s0.3-0.8,0.4-1.2c0.1-0.4,0.3-0.8,0.4-1.1c0.2-0.6,0.4-1,0.6-1.2
		c0.2-0.2,0.6-0.4,0.9-0.4c0.3,0,0.4,0,0.6,0.1c0.2,0.1,0.3,0.2,0.4,0.3c0.1,0.1,0.2,0.3,0.2,0.4s0.1,0.3,0.1,0.4c0,0,0,0.2-0.1,0.4
		c-0.1,0.2-0.2,0.5-0.3,0.8c-0.1,0.3-0.2,0.6-0.4,1c-0.1,0.4-0.3,0.8-0.4,1.1s-0.3,0.8-0.4,1.1c-0.1,0.4-0.2,0.7-0.3,0.9
		c1-0.1,1.8-0.1,2.5-0.2c0.7-0.1,1.3-0.1,1.8-0.2c0.5,0,0.9-0.1,1.3-0.1c0.3,0,0.7,0,1,0c0.5,0,0.8,0,1.1,0.1c0.3,0,0.5,0.1,0.7,0.2
		s0.3,0.2,0.3,0.3C100,23.4,100,23.5,100,23.7z"/>
	<path d="M130,18c0,0.1,0,0.3-0.1,0.5s-0.1,0.4-0.1,0.6c-0.1,0.2-0.1,0.4-0.2,0.6s-0.2,0.3-0.3,0.4c-0.3,0.3-0.7,0.5-1.4,0.5
		c0-0.7-0.1-1.3-0.3-1.8c-0.1-0.2-0.3-0.4-0.5-0.6c-0.3-0.1-0.5-0.3-0.8-0.4c-0.3-0.1-0.6-0.2-0.9-0.2s-0.6-0.1-0.8-0.1
		c-0.5,0-1,0-1.5,0c-0.5,0-0.9,0.1-1.4,0.1s-0.9,0.2-1.4,0.3s-0.9,0.3-1.4,0.5c-0.4,0.2-0.8,0.4-1.2,0.6s-0.8,0.5-1.2,0.7
		s-0.7,0.6-0.9,0.9s-0.4,0.7-0.5,1.1c0,0.3,0.1,0.6,0.3,1c0.2,0.4,0.5,0.8,0.8,1.1c0.3,0.4,0.8,0.7,1.2,1s0.9,0.5,1.4,0.6
		c0.1,0,0.3,0.1,0.6,0.2c0.3,0.1,0.6,0.2,1,0.3s0.7,0.2,1,0.3c0.3,0.1,0.5,0.2,0.6,0.2c2.4,0.6,4.2,1.4,5.3,2.2
		c1.2,0.9,1.8,1.9,1.8,3.1c0,0.4-0.1,0.8-0.3,1.2c-0.2,0.4-0.4,0.8-0.7,1.1c-0.3,0.4-0.6,0.7-0.9,1s-0.6,0.5-0.9,0.8
		c-0.3,0.3-0.7,0.5-1.1,0.8s-0.8,0.5-1.3,0.8c-0.4,0.2-0.9,0.5-1.4,0.7c-0.5,0.2-1,0.4-1.4,0.6c-0.5,0.2-1,0.3-1.5,0.4
		c-0.5,0.1-1.1,0.3-1.6,0.3c-0.5,0.1-1,0.2-1.5,0.2s-0.9,0.1-1.3,0.1c-0.3,0-0.6,0-1.1-0.1c-0.4-0.1-0.9-0.2-1.3-0.3
		c-0.4-0.1-0.8-0.3-1.1-0.5c-0.3-0.2-0.4-0.4-0.4-0.6c0-0.1,0-0.3,0.1-0.5c0-0.2,0.1-0.4,0.2-0.6c0.1-0.2,0.2-0.3,0.2-0.5
		s0.2-0.2,0.3-0.2c0.2,0,0.4,0,0.7,0.1s0.5,0.2,0.8,0.2c0.3,0.1,0.7,0.2,1.1,0.2s1,0.1,1.6,0.1c0.6,0,1.3-0.1,2-0.2s1.4-0.3,2-0.5
		c0.7-0.2,1.3-0.5,1.9-0.8s1.1-0.6,1.6-0.9c0.2-0.2,0.5-0.3,0.7-0.5s0.5-0.4,0.8-0.7c0.2-0.2,0.4-0.5,0.6-0.8
		c0.2-0.3,0.2-0.5,0.2-0.8c0-0.4-0.3-0.8-0.9-1.2c-0.6-0.4-1.2-0.6-1.8-0.9c-0.6-0.2-1.2-0.4-1.6-0.5c-0.6-0.1-1.2-0.4-2-0.6
		s-1.5-0.5-2.4-0.9c-1.4-0.5-2.7-1.4-3.7-2.4c-1-1.1-1.5-2.4-1.5-3.9c0-0.7,0.2-1.4,0.7-2c0.4-0.6,1.1-1.3,1.8-1.8
		c0.8-0.5,1.6-1,2.6-1.5c1-0.4,2-0.8,3-1c0.2,0,0.5-0.1,0.8-0.1c0.3-0.1,0.6-0.1,0.9-0.1s0.6-0.1,0.9-0.1c0.3,0,0.6,0,0.8,0
		c0.3,0,0.6,0,1,0.1s0.8,0.1,1.2,0.1c0.4,0.1,0.8,0.1,1.2,0.2s0.7,0.2,0.9,0.3c0.5,0.3,1,0.6,1.3,1C129.8,17.3,130,17.7,130,18z"/>
	<path d="M153,24.3c0,0.4-0.1,0.7-0.3,0.9s-0.5,0.4-0.7,0.5c-0.4,0.2-0.7,0.3-1.2,0.4c-0.4,0.1-0.9,0.2-1.3,0.3
		c-0.4,0.1-0.9,0.2-1.4,0.3c-0.5,0.1-0.9,0.1-1.3,0.2c-0.4,0-0.9,0.1-1.4,0.1c-0.5,0-1,0.1-1.4,0.1c-0.5,0-0.9,0.1-1.3,0.2
		c-0.4,0.1-0.7,0.1-1,0.2c-0.2,1-0.5,1.9-0.7,2.8c-0.3,0.9-0.5,1.8-0.6,2.6c0,0.2-0.1,0.5-0.2,0.9c-0.1,0.4-0.1,0.8-0.2,1.3
		c-0.1,0.4-0.1,0.9-0.2,1.3s-0.1,0.7-0.1,0.8c0,0.4,0.1,0.8,0.2,1s0.3,0.4,0.5,0.5c0.2,0.1,0.3,0.3,0.4,0.4c0.1,0.1,0.2,0.3,0.2,0.5
		c0,0.2-0.1,0.3-0.2,0.4c-0.1,0.1-0.3,0.3-0.5,0.4s-0.4,0.2-0.6,0.3s-0.4,0.1-0.6,0.1c-0.3,0-0.6-0.1-0.8-0.3
		c-0.3-0.2-0.4-0.4-0.6-0.7s-0.3-0.6-0.4-0.9c-0.1-0.3-0.1-0.7-0.1-1.1c0-0.5,0-1,0.1-1.6c0.1-0.6,0.2-1.1,0.3-1.7
		c0.1-0.6,0.3-1.2,0.4-1.8c0.1-0.6,0.3-1.2,0.4-1.8c0.1-0.3,0.1-0.5,0.2-0.8s0.1-0.5,0.2-0.8s0.1-0.4,0.1-0.6s0.1-0.3,0.1-0.3
		c0-0.2-0.1-0.3-0.2-0.4s-0.3-0.1-0.4-0.1c-0.1,0-0.3,0-0.6,0s-0.5,0-0.8,0.1c-0.3,0-0.6,0.1-0.8,0.1s-0.4,0-0.6,0
		c-0.4,0-0.7,0-1-0.1c-0.3,0-0.5-0.1-0.6-0.3c-0.2-0.1-0.3-0.3-0.4-0.5c-0.1-0.2-0.1-0.5-0.1-0.9c0-0.1,0.1-0.3,0.2-0.4
		s0.3-0.1,0.5-0.2c0.2,0,0.4-0.1,0.6-0.1c0.2,0,0.4,0,0.6,0c0.1,0,0.4,0,0.7,0c0.3,0,0.6-0.1,1-0.1c0.3,0,0.7-0.1,1-0.1
		c0.3,0,0.5,0,0.7,0c0.1,0,0.1,0,0.2,0c0.1,0,0.2,0,0.3-0.1s0.2-0.1,0.3-0.2c0.1-0.1,0.1-0.3,0.2-0.5c0.1-0.3,0.2-0.7,0.3-1.2
		s0.2-0.9,0.3-1.4c0.1-0.5,0.2-0.9,0.3-1.3s0.2-0.8,0.3-1.1c0.1-0.3,0.2-0.6,0.3-1c0.1-0.3,0.1-0.7,0.2-1s0.1-0.7,0.2-1
		c0.1-0.3,0.2-0.6,0.3-0.9c0.2-0.6,0.6-0.8,1.1-0.8c0.8,0,1.2,0.4,1.2,1.3c0,0.5-0.1,1.2-0.4,1.9c-0.5,1.6-0.9,3-1.1,4
		c-0.3,1-0.4,1.8-0.4,2.1c0,0.4,0.2,0.6,0.6,0.6c0.5,0,0.9,0,1.4,0c0.4,0,0.9,0,1.3-0.1c0.4,0,0.9-0.1,1.4-0.1c0.5,0,1-0.1,1.6-0.2
		c0.4,0,0.8-0.1,1.2-0.2s0.8-0.1,1.1-0.2s0.6-0.1,0.9-0.2c0.3-0.1,0.5-0.1,0.6-0.1c0.1,0,0.2,0,0.3,0c0.1,0,0.2,0,0.3,0
		c0.1,0,0.1,0.1,0.2,0.1C153,24,153,24.1,153,24.3z"/>
	<path d="M170.4,24.2c0,0.2-0.1,0.4-0.2,0.6c-0.1,0.2-0.3,0.4-0.5,0.6c-0.2,0.2-0.4,0.4-0.7,0.6c-0.3,0.2-0.5,0.4-0.8,0.6
		c-0.3,0.2-0.5,0.3-0.7,0.5s-0.4,0.2-0.6,0.3c-0.3,0.1-0.6,0.2-1.1,0.3s-0.9,0.2-1.4,0.2s-1,0.1-1.4,0.1s-0.9,0.1-1.2,0.1
		c-0.1,0-0.3,0-0.5-0.1c-0.2,0-0.4-0.1-0.7-0.2c-0.2-0.1-0.5-0.1-0.7-0.2c-0.2-0.1-0.4-0.2-0.5-0.3c0.1,0.4,0.2,0.8,0.3,1.2
		c0.1,0.4,0.1,0.8,0.1,1.3c0,0.2,0,0.4-0.1,0.7s-0.1,0.6-0.2,0.8s-0.2,0.5-0.3,0.8c-0.1,0.3-0.2,0.5-0.3,0.7
		c-0.3,0.5-0.6,0.9-0.9,1.3c-0.3,0.4-0.6,0.7-1,1.1c-0.4,0.3-0.8,0.6-1.2,0.9c-0.5,0.3-1,0.6-1.6,0.8c-0.6,0.3-1.3,0.5-1.9,0.6
		s-1.3,0.2-2,0.2c-0.4,0-0.8-0.1-1.2-0.4c-0.3-0.3-0.6-0.6-0.9-1s-0.4-0.9-0.5-1.5s-0.2-1.2-0.2-1.8c0-0.2,0-0.4,0-0.6
		s0.1-0.5,0.1-0.7c0.1-0.2,0.1-0.5,0.1-0.7c0.1-0.2,0.1-0.4,0.2-0.6c0.1-0.5,0.4-1,0.6-1.5c0.3-0.6,0.6-1.2,1-1.8s0.8-1.2,1.3-1.8
		s0.9-1.1,1.4-1.6s1-0.8,1.6-1.1s1.1-0.4,1.6-0.4c0.2,0,0.3,0,0.4,0.1s0.2,0.1,0.3,0.2c0.1,0.1,0.1,0.2,0.2,0.3
		c0.1,0.1,0.1,0.2,0.2,0.3c0,0,0.1,0.1,0.1,0.1c0.1,0,0.2,0,0.3-0.1c0.1,0,0.3-0.1,0.4-0.1c0.2,0,0.4,0.1,0.8,0.4s0.6,0.5,0.9,0.9
		c0.3,0.3,0.6,0.6,1,0.9s0.6,0.4,0.9,0.4c0.3,0,0.6,0,0.9,0c0.3,0,0.7,0,1-0.1c0.3,0,0.7-0.1,1-0.1s0.6-0.1,0.9-0.1
		c0.1,0,0.3-0.1,0.5-0.1s0.6-0.2,1-0.3s0.8-0.2,1.2-0.3c0.4-0.1,0.8-0.2,1.1-0.3s0.6-0.2,0.9-0.3c0.2-0.1,0.4-0.1,0.4-0.1
		c0.1,0,0.1,0,0.2,0C170.4,24.1,170.4,24.2,170.4,24.2z M158,26.8c-0.1-0.2-0.2-0.4-0.4-0.6c-0.2-0.2-0.4-0.4-0.6-0.5
		c-0.2-0.2-0.5-0.3-0.8-0.4c-0.3-0.1-0.5-0.1-0.8-0.1c-0.2,0-0.4,0-0.6,0.1c-0.2,0.1-0.4,0.1-0.5,0.3c-0.2,0.1-0.3,0.2-0.5,0.3
		c-0.2,0.1-0.3,0.2-0.4,0.3c-0.4,0.4-0.8,0.8-1.2,1.5c-0.4,0.6-0.7,1.3-1,2s-0.5,1.5-0.7,2.2c-0.2,0.7-0.3,1.3-0.3,1.9
		c0,0.2,0,0.5,0.1,0.7s0.2,0.4,0.3,0.6c0.1,0.2,0.3,0.3,0.5,0.4c0.2,0.1,0.4,0.2,0.7,0.2c0.6,0,1.2-0.1,1.8-0.3
		c0.5-0.2,1-0.5,1.5-0.9c0.4-0.4,0.8-0.9,1.2-1.4c0.3-0.5,0.6-1.1,0.9-1.8c0.2-0.6,0.4-1.3,0.5-2C157.9,28.2,157.9,27.5,158,26.8z"
		/>
	<path d="M182.1,26c0,0.2-0.1,0.3-0.2,0.4c-0.1,0.1-0.3,0.2-0.6,0.3c-0.2,0.1-0.5,0.2-0.8,0.3s-0.6,0.2-0.9,0.3
		c-0.7,0.2-1.4,0.5-2.1,0.9c-0.7,0.4-1.5,1-2.3,1.8c-0.6,0.6-1.1,1.3-1.6,2c-0.4,0.7-0.8,1.4-1.1,2.2c-0.3,0.8-0.6,1.6-0.8,2.4
		c-0.2,0.9-0.4,1.8-0.6,2.7c-0.1,0.1-0.2,0.2-0.3,0.3c-0.1,0.1-0.2,0.2-0.3,0.2s-0.2,0.1-0.3,0.2S170,40,169.8,40
		c-0.3,0-0.5-0.1-0.6-0.4c-0.1-0.2-0.3-0.5-0.3-0.8c-0.1-0.3-0.1-0.7-0.1-1c0-0.3,0-0.6,0-0.8c0-0.2,0-0.5,0-0.8c0-0.3,0-0.7,0-1
		c0-0.4,0-0.8,0.1-1.2c0-0.4,0-0.8,0.1-1.2c0-0.4,0-0.7,0-1s0-0.6,0-0.8c0-0.5,0-0.9,0-1.2c0-0.3,0-0.6-0.1-0.8s-0.1-0.4-0.1-0.6
		s-0.1-0.4-0.1-0.6s0-0.5-0.1-0.7c0-0.3,0-0.6,0-1.1c0-0.2,0.1-0.4,0.1-0.6s0.2-0.4,0.4-0.5c0.1-0.1,0.3-0.3,0.5-0.4
		s0.4-0.1,0.6-0.1c0.2,0,0.4,0,0.6,0.1s0.4,0.2,0.5,0.4c0.1,0.1,0.2,0.3,0.3,0.5c0.1,0.2,0.1,0.4,0.1,0.6c0,0.4,0,0.9-0.1,1.4
		c-0.1,0.6-0.1,1.1-0.2,1.7c-0.1,0.6-0.1,1.1-0.1,1.7c0,0.5-0.1,1-0.1,1.4c0.5-0.9,1-1.8,1.6-2.6c0.6-0.9,1.3-1.7,2-2.4
		c0.7-0.7,1.5-1.3,2.4-1.8s1.8-0.7,2.8-0.7c0.2,0,0.4,0,0.6,0.1c0.3,0,0.5,0.1,0.7,0.2c0.2,0.1,0.4,0.2,0.5,0.4
		C182.1,25.5,182.1,25.7,182.1,26z"/>
	<path d="M198.7,30.4c0,0.4-0.1,0.8-0.4,1.2c-0.3,0.4-0.7,0.9-1.2,1.5c-0.6,0.6-1.2,1.2-1.9,1.7c-0.7,0.5-1.4,1-2.2,1.4
		s-1.5,0.7-2.3,0.9c-0.8,0.2-1.5,0.3-2.2,0.3c-1.7,0-3-0.5-3.9-1.6s-1.4-2.7-1.4-4.7c0-0.7,0.1-1.3,0.2-2s0.3-1.4,0.5-2
		c0.2-0.7,0.5-1.3,0.9-2c0.4-0.6,0.8-1.2,1.2-1.8c0.3-0.3,0.6-0.7,1-1c0.4-0.3,0.7-0.6,1.2-0.9c0.4-0.3,0.9-0.5,1.4-0.7
		s1.1-0.3,1.6-0.3c0.4,0,0.8,0.1,1.1,0.3s0.6,0.4,0.9,0.6c0.2,0.3,0.4,0.5,0.5,0.9s0.2,0.6,0.2,0.9c0,0.6-0.2,1.3-0.5,2
		s-0.9,1.3-1.5,2c-0.6,0.7-1.4,1.4-2.3,2c-0.9,0.7-1.9,1.4-3,2c-0.1,0.1-0.3,0.2-0.4,0.3s-0.2,0.2-0.2,0.4c0,0.3,0,0.6,0.1,1
		c0.1,0.3,0.2,0.7,0.5,1c0.2,0.3,0.5,0.5,0.9,0.7c0.4,0.2,0.9,0.3,1.4,0.3c0.7,0,1.5-0.1,2.3-0.4s1.5-0.6,2.3-1s1.5-0.9,2.1-1.5
		c0.7-0.6,1.4-1.2,1.9-1.9c0.3-0.4,0.6-0.6,0.8-0.6c0.1,0,0.2,0.1,0.3,0.2C198.6,29.8,198.7,30.1,198.7,30.4z M191.3,23.6
		c0-0.1,0-0.2-0.1-0.3c-0.1-0.1-0.1-0.2-0.2-0.2s-0.2-0.1-0.3-0.1c-0.1,0-0.2-0.1-0.3-0.1c-0.5,0-0.9,0.2-1.4,0.5
		c-0.5,0.3-0.9,0.8-1.4,1.4c-0.4,0.6-0.8,1.3-1.1,2.1c-0.3,0.8-0.5,1.7-0.6,2.7c0.1-0.1,0.4-0.2,0.6-0.4c0.2-0.2,0.5-0.4,0.8-0.6
		c0.3-0.2,0.6-0.4,0.9-0.7c0.3-0.2,0.5-0.4,0.8-0.6c0.5-0.4,0.9-0.8,1.2-1.1c0.3-0.3,0.6-0.6,0.8-0.9c0.2-0.3,0.3-0.5,0.4-0.8
		C191.2,24.1,191.3,23.9,191.3,23.6z"/>
</g>
</svg>
